{"title":"Sahib BIbi Aur Ghulam (1962) 2CD DVDRip x264 AAC Esub 720p","uid":8331973,"size":1547329506,"categoryP":"video","categoryS":"hd___movies","magnet":"?xt=urn:btih:ae6b2fcf9f422d26f35881d1631e0e0317549146&amp;dn=Sahib+BIbi+Aur+Ghulam+%281962%29+2CD+DVDRip+x264+AAC+Esub+720p&amp;tr=udp%3A%2F%2Ftracker.openbittorrent.com%3A80&amp;tr=udp%3A%2F%2Fopen.demonii.com%3A1337&amp;tr=udp%3A%2F%2Ftracker.coppersurfer.tk%3A6969&amp;tr=udp%3A%2F%2Fexodus.desync.com%3A6969","seeders":2,"leechers":1,"uploader":"Bclassics","files":2,"time":1364861797,"description":"\n-: Cover :- \n\n &lt;a href=&quot;\nhttp://desibbrg.net/imghost/show.php?img=430639_Sahib.BIbi.Aur.Ghulam.1962.DVDRip.x264.AAC.Esub.720p.HD.RRG.DADA..jpg.html&quot; rel=&quot;nofollow&quot; target=&quot;_NEW&quot;&gt;\nhttp://desibbrg.net/imghost/show.php?img=430639_Sahib.BIbi.Aur.Ghulam.1962.DVDRip.x264.AAC.Esub.720p.HD.RRG.DADA..jpg.html&lt;/a&gt;\n\n\n-: Screens :-\n\n\n\n\n\n &lt;a href=&quot;\nhttp://desibbrg.net/imghost/show.php?img=430636_SahibBibiAurGhulam.mp4snapshot00.25.102013.04.0211.06.57.jpg.html&quot; rel=&quot;nofollow&quot; target=&quot;_NEW&quot;&gt;\nhttp://desibbrg.net/imghost/show.php?img=430636_SahibBibiAurGhulam.mp4snapshot00.25.102013.04.0211.06.57.jpg.html&lt;/a&gt; &lt;a href=&quot;\nhttp://desibbrg.org/images/36785408863276731804.jpg&quot; rel=&quot;nofollow&quot; target=&quot;_NEW&quot;&gt;\nhttp://desibbrg.org/images/36785408863276731804.jpg&lt;/a&gt; &lt;a href=&quot;\nhttp://desibbrg.org/images/10637771310921158330.jpg&quot; rel=&quot;nofollow&quot; target=&quot;_NEW&quot;&gt;\nhttp://desibbrg.org/images/10637771310921158330.jpg&lt;/a&gt; &lt;a href=&quot;\nhttp://desibbrg.org/images/56423502443593538838.jpg&quot; rel=&quot;nofollow&quot; target=&quot;_NEW&quot;&gt;\nhttp://desibbrg.org/images/56423502443593538838.jpg&lt;/a&gt; &lt;a href=&quot;\nhttp://desibbrg.org/images/62916468287416591286.jpg&quot; rel=&quot;nofollow&quot; target=&quot;_NEW&quot;&gt;\nhttp://desibbrg.org/images/62916468287416591286.jpg&lt;/a&gt; &lt;a href=&quot;\nhttp://desibbrg.org/images/22731758226629634115.jpg&quot; rel=&quot;nofollow&quot; target=&quot;_NEW&quot;&gt;\nhttp://desibbrg.org/images/22731758226629634115.jpg&lt;/a&gt; &lt;a href=&quot;\nhttp://desibbrg.org/images/08596499233223427537.jpg&quot; rel=&quot;nofollow&quot; target=&quot;_NEW&quot;&gt;\nhttp://desibbrg.org/images/08596499233223427537.jpg&lt;/a&gt; &lt;a href=&quot;\nhttp://desibbrg.org/images/87075917419358168234.jpg&quot; rel=&quot;nofollow&quot; target=&quot;_NEW&quot;&gt;\nhttp://desibbrg.org/images/87075917419358168234.jpg&lt;/a&gt; &lt;a href=&quot;\nhttp://desibbrg.org/images/12221997496357266597.jpg&quot; rel=&quot;nofollow&quot; target=&quot;_NEW&quot;&gt;\nhttp://desibbrg.org/images/12221997496357266597.jpg&lt;/a&gt; &lt;a href=&quot;\nhttp://desibbrg.org/images/81116273041647461345.jpg&quot; rel=&quot;nofollow&quot; target=&quot;_NEW&quot;&gt;\nhttp://desibbrg.org/images/81116273041647461345.jpg&lt;/a&gt; &lt;a href=&quot;\nhttp://desibbrg.net/imghost/show.php?img=430637_Sahib.BIbi.Aur.Ghulam.1962.DVDRip.x264.AAC.Esub.720p.HD.RRG.DADA.DBBIANS.Comthumbs.jpg.html&quot; rel=&quot;nofollow&quot; target=&quot;_NEW&quot;&gt;\nhttp://desibbrg.net/imghost/show.php?img=430637_Sahib.BIbi.Aur.Ghulam.1962.DVDRip.x264.AAC.Esub.720p.HD.RRG.DADA.DBBIANS.Comthumbs.jpg.html&lt;/a&gt;\n\n\n-: Info :-  \n\n\nGeneral\n\nFormat : MPEG-4\nFormat profile : Base Media / Version 2\nCodec ID : mp42\nFile size : 1.44 GiB\nDuration : 2h 26mn\nOverall bit rate : 1 411 Kbps\n\nVideo\nID : 1\nFormat : AVC\nFormat/Info : Advanced Video Codec\nFormat profile : &lt;a class=&quot;__cf_email__&quot; href=&quot;/cdn-cgi/l/email-protection&quot; data-cfemail=&quot;753d1c121d3539465b44&quot;&gt;[email&amp;#160;protected]&lt;/a&gt;&lt;script cf-hash='f9e31' type=&quot;text/javascript&quot;&gt;\n/* &lt;![CDATA[ */!function(){try{var t=&quot;currentScript&quot;in document?document.currentScript:function(){for(var t=document.getElementsByTagName(&quot;script&quot;),e=t.length;e--;)if(t[e].getAttribute(&quot;cf-hash&quot;))return t[e]}();if(t&amp;&amp;t.previousSibling){var e,r,n,i,c=t.previousSibling,a=c.getAttribute(&quot;data-cfemail&quot;);if(a){for(e=&quot;&quot;,r=parseInt(a.substr(0,2),16),n=2;a.length-n;n+=2)i=parseInt(a.substr(n,2),16)^r,e+=String.fromCharCode(i);e=document.createTextNode(e),c.parentNode.replaceChild(e,c)}}}catch(u){}}();/* ]]&gt; */&lt;/script&gt;\nFormat settings, CABAC : Yes\nFormat settings, ReFrames : 1 frame\nCodec ID : avc1\nCodec ID/Info : Advanced Video Coding\nDuration : 2h 26mn\nBit rate mode : Variable\nBit rate : 1 257 Kbps\nMaximum bit rate : 3 158 Kbps\nWidth : 1 280 pixels\nHeight : 720 pixels\nDisplay aspect ratio : 16:9\nFrame rate mode : Constant\nFrame rate : 25.000 fps\nColor space : YUV\nChroma subsampling : 40\nBit depth : 8 bits\nScan type : Progressive\nBits/(Pixel*Frame) : 0.055\nStream size : 1.28 GiB (89%)\n\n\nAudio\nID : 2\nFormat : AAC\nFormat/Info : Advanced Audio Codec\nFormat version : Version 4\nFormat profile : LC\nFormat settings, SBR : No\nCodec ID : 40\nDuration : 2h 26mn\nBit rate mode : Variable\nBit rate : 152 Kbps\nMaximum bit rate : 206 Kbps\nChannel(s) : 2 channels\nChannel positions : Front: L R\nSampling rate : 44.1 KHz\nStream size : 159 MiB (11%)\n\n &lt;a href=&quot;\nhttp://www.imdb.com/title/tt0056436/&quot; rel=&quot;nofollow&quot; target=&quot;_NEW&quot;&gt;\nhttp://www.imdb.com/title/tt0056436/&lt;/a&gt;\n\nAbout this movie\n\n    Genres:\nIndian Cinema, Drama, Family\n    Language:\nHindi\n    Subtitles:\nEnglish\n    Running time:\n2:26:11\n    Partner rating: \nGREEN\n    Released:\nNov 15, 1962\n\n\nCast &amp; Crew\nCast\n\n    Guru Dutt\n    Meena Kumari\n    Sapru\n    Waheeda Rehman\n    Rehman.\n\nDirectors\n\n    Abrar Alvi\n\nProducers\n\n    Guru Dutt\n\n\nSuper Hit old classic movie Sahib BIbi Aur Ghulam (1962) Synopsis: Bhoothnath [Guru Dutt] comes to Calcutta in search of work and finds work as a servant in a rich household. He soon finds himself drawn to the zamindar s pretty young wife, commonly known as Chhoti Bahu [Meena Kumari], who in his view seems to lead a remarkably lonely life as she spends her long days waiting for her husband to return. Her husband spends his time steeped in alcohol and women, and so desparate is Chhoti Bahu to get him that she even takes to drinking to attune herself to his lifestyle. The film has a tragic undercurrent throughout, where the downfall of the Chowdhury household is symbolic of an era. ","torrent":{"xt":"urn:btih:ae6b2fcf9f422d26f35881d1631e0e0317549146","amp;dn":"Sahib+BIbi+Aur+Ghulam+%281962%29+2CD+DVDRip+x264+AAC+Esub+720p","amp;tr":["udp%3A%2F%2Ftracker.openbittorrent.com%3A80","udp%3A%2F%2Fopen.demonii.com%3A1337","udp%3A%2F%2Ftracker.coppersurfer.tk%3A6969","udp%3A%2F%2Fexodus.desync.com%3A6969"],"infoHash":"ae6b2fcf9f422d26f35881d1631e0e0317549146","infoHashBuffer":{"type":"Buffer","data":[174,107,47,207,159,66,45,38,243,88,129,209,99,30,14,3,23,84,145,70]},"announce":[],"urlList":[]}}